<svg id="visual" viewBox="0 0 1920 220" width="1920" height="220" xmlns="http://www.w3.org/2000/svg" xmlns:xlink="http://www.w3.org/1999/xlink" version="1.1"><rect x="0" y="0" width="1920" height="220" fill="#202020"></rect><path d="M0 123L24.7 137C49.3 151 98.7 179 147.8 172.8C197 166.7 246 126.3 295.2 117.3C344.3 108.3 393.7 130.7 443 150.5C492.3 170.3 541.7 187.7 590.8 188.3C640 189 689 173 738.2 152.2C787.3 131.3 836.7 105.7 886 113.8C935.3 122 984.7 164 1034 176.8C1083.3 189.7 1132.7 173.3 1181.8 171.2C1231 169 1280 181 1329.2 176.8C1378.3 172.7 1427.7 152.3 1477 153C1526.3 153.7 1575.7 175.3 1624.8 169.2C1674 163 1723 129 1772.2 125.3C1821.3 121.7 1870.7 148.3 1895.3 161.7L1920 175L1920 221L1895.3 221C1870.7 221 1821.3 221 1772.2 221C1723 221 1674 221 1624.8 221C1575.7 221 1526.3 221 1477 221C1427.7 221 1378.3 221 1329.2 221C1280 221 1231 221 1181.8 221C1132.7 221 1083.3 221 1034 221C984.7 221 935.3 221 886 221C836.7 221 787.3 221 738.2 221C689 221 640 221 590.8 221C541.7 221 492.3 221 443 221C393.7 221 344.3 221 295.2 221C246 221 197 221 147.8 221C98.7 221 49.3 221 24.7 221L0 221Z" fill="#121212" stroke-linecap="round" stroke-linejoin="miter"></path></svg>